<svg xmlns="http://www.w3.org/2000/svg" width="1160" height="605" viewBox="0 0 1160 605">
<style>
  :root { color-scheme: light; }
  svg { background:#fbf8ff; font-family:'Courier New',monospace; }
  .grid { stroke:#e5d6ff; stroke-width:1; }
  .title { fill:#2b0a5a; font-size:25px; font-weight:700; letter-spacing:2px; }
  .subtitle { fill:#6e3aa8; font-size:13px; letter-spacing:1.4px; }
  .signal-path { fill:none; stroke:#9b4dff; stroke-width:3; stroke-dasharray:8 8; animation:flow 2s linear infinite; }
  .module-node { cursor:pointer; outline:none; }
  .module-node rect { fill:#ffffff; stroke:#5d168f; stroke-width:3; filter:drop-shadow(6px 6px 0 #d7b8ff); transition:120ms ease; }
  .module-node:hover rect,.module-node:focus rect,.module-node.active rect { fill:#f3e8ff; stroke:#ff3fcf; transform:translate(-2px,-2px); }
  .node-index { fill:#ff2dbf; font-size:17px; font-weight:700; }
  .node-title { fill:#2b0a5a; font-size:15px; font-weight:700; }
  .node-meta { fill:#6e3aa8; font-size:11px; letter-spacing:1px; }
  @keyframes flow { to { stroke-dashoffset:-32; } }
</style>
<defs><pattern id="grid" width="24" height="24" patternUnits="userSpaceOnUse"><path class="grid" d="M 24 0 L 0 0 0 24" fill="none" /></pattern></defs>
<rect width="100%" height="100%" fill="url(#grid)" />
<text class="title" x="70" y="58">OURD GUI Testing</text>
<text class="subtitle" x="70" y="88">INTERACTIVE MODULE CIRCUIT · SELECT A NODE TO NAVIGATE</text>
<g class="edges"><path class="signal-path" d="M 380 186.0 C 404 186.0, 401 186.0, 425 186.0" /><path class="signal-path" d="M 735 186.0 C 759 186.0, 756 186.0, 780 186.0" /><path class="signal-path" d="M 1090 186.0 C 1114 186.0, 46 330.0, 70 330.0" /><path class="signal-path" d="M 380 330.0 C 404 330.0, 401 330.0, 425 330.0" /><path class="signal-path" d="M 735 330.0 C 759 330.0, 756 330.0, 780 330.0" /><path class="signal-path" d="M 1090 330.0 C 1114 330.0, 46 474.0, 70 474.0" /><path class="signal-path" d="M 380 474.0 C 404 474.0, 401 474.0, 425 474.0" /></g><g class="nodes"><g class="module-node" id="node-ourd-gui-testing" data-target="ourd-gui-testing" tabindex="0" role="link"><rect x="70" y="145" width="310" height="82" rx="3" /><text class="node-index" x="88" y="172">01</text><text class="node-title" x="128" y="174">OURD GUI Testing</text><text class="node-meta" x="88" y="205">LEVEL 1 · 25 PARAGRAPHS</text><title>Open module 1: OURD GUI Testing</title></g><g class="module-node" id="node-deterministic-gui-suite" data-target="deterministic-gui-suite" tabindex="0" role="link"><rect x="425" y="145" width="310" height="82" rx="3" /><text class="node-index" x="443" y="172">02</text><text class="node-title" x="483" y="174">Deterministic GUI Suite</text><text class="node-meta" x="443" y="205">LEVEL 2 · 25 PARAGRAPHS</text><title>Open module 2: Deterministic GUI Suite</title></g><g class="module-node" id="node-schema-v1-fixture" data-target="schema-v1-fixture" tabindex="0" role="link"><rect x="780" y="145" width="310" height="82" rx="3" /><text class="node-index" x="798" y="172">03</text><text class="node-title" x="838" y="174">Schema-v1 Fixture</text><text class="node-meta" x="798" y="205">LEVEL 2 · 25 PARAGRAPHS</text><title>Open module 3: Schema-v1 Fixture</title></g><g class="module-node" id="node-headless-launch" data-target="headless-launch" tabindex="0" role="link"><rect x="70" y="289" width="310" height="82" rx="3" /><text class="node-index" x="88" y="316">04</text><text class="node-title" x="128" y="318">Headless Launch</text><text class="node-meta" x="88" y="349">LEVEL 2 · 25 PARAGRAPHS</text><title>Open module 4: Headless Launch</title></g><g class="module-node" id="node-packaging" data-target="packaging" tabindex="0" role="link"><rect x="425" y="289" width="310" height="82" rx="3" /><text class="node-index" x="443" y="316">05</text><text class="node-title" x="483" y="318">Packaging</text><text class="node-meta" x="443" y="349">LEVEL 2 · 25 PARAGRAPHS</text><title>Open module 5: Packaging</title></g><g class="module-node" id="node-full-repository-validation" data-target="full-repository-validation" tabindex="0" role="link"><rect x="780" y="289" width="310" height="82" rx="3" /><text class="node-index" x="798" y="316">06</text><text class="node-title" x="838" y="318">Full Repository Validation</text><text class="node-meta" x="798" y="349">LEVEL 2 · 25 PARAGRAPHS</text><title>Open module 6: Full Repository Validation</title></g><g class="module-node" id="node-performance-targets" data-target="performance-targets" tabindex="0" role="link"><rect x="70" y="433" width="310" height="82" rx="3" /><text class="node-index" x="88" y="460">07</text><text class="node-title" x="128" y="462">Performance Targets</text><text class="node-meta" x="88" y="493">LEVEL 2 · 25 PARAGRAPHS</text><title>Open module 7: Performance Targets</title></g><g class="module-node" id="node-formal-writing-gui-validation" data-target="formal-writing-gui-validation" tabindex="0" role="link"><rect x="425" y="433" width="310" height="82" rx="3" /><text class="node-index" x="443" y="460">08</text><text class="node-title" x="483" y="462">Formal-Writing GUI Validation</text><text class="node-meta" x="443" y="493">LEVEL 2 · 25 PARAGRAPHS</text><title>Open module 8: Formal-Writing GUI Validation</title></g></g>
</svg>
