<svg data-visual-grammar="1" data-visual-role="expert-document" data-doc-node="document-saa83to86reasoningoperations-md" data-node-role="process" aria-label="SAA-8.3 through SAA-8.6: Operational canonical reasoning" tabindex="0" xmlns="http://www.w3.org/2000/svg" width="1160" height="1757" viewBox="0 0 1160 1757"><title>SAA-8.3 through SAA-8.6: Operational canonical reasoning</title><desc>Generated expert-document diagram for SAA-8.3 through SAA-8.6: Operational canonical reasoning.</desc>
<style>
  :root { color-scheme: light; }
  svg { background:#fbf8ff; font-family:'Courier New',monospace; }
  .grid { stroke:#e5d6ff; stroke-width:1; }
  .title { fill:#2b0a5a; font-size:25px; font-weight:700; letter-spacing:2px; }
  .subtitle { fill:#6e3aa8; font-size:13px; letter-spacing:1.4px; }
  .signal-path { fill:none; stroke:#9b4dff; stroke-width:3; stroke-dasharray:8 8; animation:flow 2s linear infinite; }
  .module-node { cursor:pointer; outline:none; }
  .module-node rect { fill:#ffffff; stroke:#5d168f; stroke-width:3; filter:drop-shadow(6px 6px 0 #d7b8ff); transition:120ms ease; }
  .module-node:hover rect,.module-node:focus rect,.module-node.active rect { fill:#f3e8ff; stroke:#ff3fcf; transform:translate(-2px,-2px); }
  .node-index { fill:#ff2dbf; font-size:17px; font-weight:700; }
  .node-title { fill:#2b0a5a; font-size:15px; font-weight:700; }
  .node-meta { fill:#6e3aa8; font-size:11px; letter-spacing:1px; }
  @keyframes flow { to { stroke-dashoffset:-32; } }
</style>
<defs><pattern id="grid" width="24" height="24" patternUnits="userSpaceOnUse"><path class="grid" d="M 24 0 L 0 0 0 24" fill="none" /></pattern></defs>
<rect width="100%" height="100%" fill="url(#grid)" />
<text class="title" x="70" y="58">SAA-8.3 through SAA-8.6: Operational canonical reasoning</text>
<text class="subtitle" x="70" y="88">INTERACTIVE MODULE CIRCUIT · SELECT A NODE TO NAVIGATE</text>
<g class="edges"><path class="signal-path" d="M 380 186.0 C 404 186.0, 401 186.0, 425 186.0" /><path class="signal-path" d="M 735 186.0 C 759 186.0, 756 186.0, 780 186.0" /><path class="signal-path" d="M 1090 186.0 C 1114 186.0, 46 330.0, 70 330.0" /><path class="signal-path" d="M 380 330.0 C 404 330.0, 401 330.0, 425 330.0" /><path class="signal-path" d="M 735 330.0 C 759 330.0, 756 330.0, 780 330.0" /><path class="signal-path" d="M 1090 330.0 C 1114 330.0, 46 474.0, 70 474.0" /><path class="signal-path" d="M 380 474.0 C 404 474.0, 401 474.0, 425 474.0" /><path class="signal-path" d="M 735 474.0 C 759 474.0, 756 474.0, 780 474.0" /><path class="signal-path" d="M 1090 474.0 C 1114 474.0, 46 618.0, 70 618.0" /><path class="signal-path" d="M 380 618.0 C 404 618.0, 401 618.0, 425 618.0" /><path class="signal-path" d="M 735 618.0 C 759 618.0, 756 618.0, 780 618.0" /><path class="signal-path" d="M 1090 618.0 C 1114 618.0, 46 762.0, 70 762.0" /><path class="signal-path" d="M 380 762.0 C 404 762.0, 401 762.0, 425 762.0" /><path class="signal-path" d="M 735 762.0 C 759 762.0, 756 762.0, 780 762.0" /><path class="signal-path" d="M 1090 762.0 C 1114 762.0, 46 906.0, 70 906.0" /><path class="signal-path" d="M 380 906.0 C 404 906.0, 401 906.0, 425 906.0" /><path class="signal-path" d="M 735 906.0 C 759 906.0, 756 906.0, 780 906.0" /><path class="signal-path" d="M 1090 906.0 C 1114 906.0, 46 1050.0, 70 1050.0" /><path class="signal-path" d="M 380 1050.0 C 404 1050.0, 401 1050.0, 425 1050.0" /><path class="signal-path" d="M 735 1050.0 C 759 1050.0, 756 1050.0, 780 1050.0" /><path class="signal-path" d="M 1090 1050.0 C 1114 1050.0, 46 1194.0, 70 1194.0" /><path class="signal-path" d="M 380 1194.0 C 404 1194.0, 401 1194.0, 425 1194.0" /><path class="signal-path" d="M 735 1194.0 C 759 1194.0, 756 1194.0, 780 1194.0" /><path class="signal-path" d="M 1090 1194.0 C 1114 1194.0, 46 1338.0, 70 1338.0" /><path class="signal-path" d="M 380 1338.0 C 404 1338.0, 401 1338.0, 425 1338.0" /><path class="signal-path" d="M 735 1338.0 C 759 1338.0, 756 1338.0, 780 1338.0" /><path class="signal-path" d="M 1090 1338.0 C 1114 1338.0, 46 1482.0, 70 1482.0" /><path class="signal-path" d="M 380 1482.0 C 404 1482.0, 401 1482.0, 425 1482.0" /><path class="signal-path" d="M 735 1482.0 C 759 1482.0, 756 1482.0, 780 1482.0" /><path class="signal-path" d="M 1090 1482.0 C 1114 1482.0, 46 1626.0, 70 1626.0" /></g><g class="nodes"><g class="module-node" id="node-saa-8-3-through-saa-8-6-operational-canonical-reasoning" data-target="saa-8-3-through-saa-8-6-operational-canonical-reasoning" tabindex="0" role="link"><rect x="70" y="145" width="310" height="82" rx="3" /><text class="node-index" x="88" y="172">01</text><text class="node-title" x="128" y="174">SAA-8.3 through SAA-8.6: Operatio…</text><text class="node-meta" x="88" y="205">LEVEL 1 · 25 PARAGRAPHS</text><title>Open module 1: SAA-8.3 through SAA-8.6: Operational canonical reasoning</title></g><g class="module-node" id="node-purpose" data-target="purpose" tabindex="0" role="link"><rect x="425" y="145" width="310" height="82" rx="3" /><text class="node-index" x="443" y="172">02</text><text class="node-title" x="483" y="174">Purpose</text><text class="node-meta" x="443" y="205">LEVEL 2 · 25 PARAGRAPHS</text><title>Open module 2: Purpose</title></g><g class="module-node" id="node-saa-8-3-canonical-reasoning-store" data-target="saa-8-3-canonical-reasoning-store" tabindex="0" role="link"><rect x="780" y="145" width="310" height="82" rx="3" /><text class="node-index" x="798" y="172">03</text><text class="node-title" x="838" y="174">SAA-8.3: Canonical Reasoning Store</text><text class="node-meta" x="798" y="205">LEVEL 2 · 25 PARAGRAPHS</text><title>Open module 3: SAA-8.3: Canonical Reasoning Store</title></g><g class="module-node" id="node-de-duplication" data-target="de-duplication" tabindex="0" role="link"><rect x="70" y="289" width="310" height="82" rx="3" /><text class="node-index" x="88" y="316">04</text><text class="node-title" x="128" y="318">De-duplication</text><text class="node-meta" x="88" y="349">LEVEL 3 · 25 PARAGRAPHS</text><title>Open module 4: De-duplication</title></g><g class="module-node" id="node-persistent-objects" data-target="persistent-objects" tabindex="0" role="link"><rect x="425" y="289" width="310" height="82" rx="3" /><text class="node-index" x="443" y="316">05</text><text class="node-title" x="483" y="318">Persistent objects</text><text class="node-meta" x="443" y="349">LEVEL 3 · 25 PARAGRAPHS</text><title>Open module 5: Persistent objects</title></g><g class="module-node" id="node-saa-8-4-retrieve-known-reasoning-and-evaluate-fit" data-target="saa-8-4-retrieve-known-reasoning-and-evaluate-fit" tabindex="0" role="link"><rect x="780" y="289" width="310" height="82" rx="3" /><text class="node-index" x="798" y="316">06</text><text class="node-title" x="838" y="318">SAA-8.4: Retrieve known reasoning…</text><text class="node-meta" x="798" y="349">LEVEL 2 · 25 PARAGRAPHS</text><title>Open module 6: SAA-8.4: Retrieve known reasoning and evaluate fit</title></g><g class="module-node" id="node-qualification-count-is-not-fit" data-target="qualification-count-is-not-fit" tabindex="0" role="link"><rect x="70" y="433" width="310" height="82" rx="3" /><text class="node-index" x="88" y="460">07</text><text class="node-title" x="128" y="462">Qualification count is not fit</text><text class="node-meta" x="88" y="493">LEVEL 3 · 25 PARAGRAPHS</text><title>Open module 7: Qualification count is not fit</title></g><g class="module-node" id="node-saa-8-5-evidence-qualified-reasoning-outcomes" data-target="saa-8-5-evidence-qualified-reasoning-outcomes" tabindex="0" role="link"><rect x="425" y="433" width="310" height="82" rx="3" /><text class="node-index" x="443" y="460">08</text><text class="node-title" x="483" y="462">SAA-8.5: Evidence-qualified reaso…</text><text class="node-meta" x="443" y="493">LEVEL 2 · 25 PARAGRAPHS</text><title>Open module 8: SAA-8.5: Evidence-qualified reasoning outcomes</title></g><g class="module-node" id="node-qualification-requirements" data-target="qualification-requirements" tabindex="0" role="link"><rect x="780" y="433" width="310" height="82" rx="3" /><text class="node-index" x="798" y="460">09</text><text class="node-title" x="838" y="462">Qualification requirements</text><text class="node-meta" x="798" y="493">LEVEL 3 · 25 PARAGRAPHS</text><title>Open module 9: Qualification requirements</title></g><g class="module-node" id="node-saa-8-6-safe-reasoning-composition" data-target="saa-8-6-safe-reasoning-composition" tabindex="0" role="link"><rect x="70" y="577" width="310" height="82" rx="3" /><text class="node-index" x="88" y="604">10</text><text class="node-title" x="128" y="606">SAA-8.6: Safe reasoning compositi…</text><text class="node-meta" x="88" y="637">LEVEL 2 · 25 PARAGRAPHS</text><title>Open module 10: SAA-8.6: Safe reasoning composition</title></g><g class="module-node" id="node-semantic-interface" data-target="semantic-interface" tabindex="0" role="link"><rect x="425" y="577" width="310" height="82" rx="3" /><text class="node-index" x="443" y="604">11</text><text class="node-title" x="483" y="606">Semantic interface</text><text class="node-meta" x="443" y="637">LEVEL 3 · 25 PARAGRAPHS</text><title>Open module 11: Semantic interface</title></g><g class="module-node" id="node-invariant-conflicts" data-target="invariant-conflicts" tabindex="0" role="link"><rect x="780" y="577" width="310" height="82" rx="3" /><text class="node-index" x="798" y="604">12</text><text class="node-title" x="838" y="606">Invariant conflicts</text><text class="node-meta" x="798" y="637">LEVEL 3 · 25 PARAGRAPHS</text><title>Open module 12: Invariant conflicts</title></g><g class="module-node" id="node-composition-topology" data-target="composition-topology" tabindex="0" role="link"><rect x="70" y="721" width="310" height="82" rx="3" /><text class="node-index" x="88" y="748">13</text><text class="node-title" x="128" y="750">Composition topology</text><text class="node-meta" x="88" y="781">LEVEL 3 · 25 PARAGRAPHS</text><title>Open module 13: Composition topology</title></g><g class="module-node" id="node-qualification-does-not-compose-automatically" data-target="qualification-does-not-compose-automatically" tabindex="0" role="link"><rect x="425" y="721" width="310" height="82" rx="3" /><text class="node-index" x="443" y="748">14</text><text class="node-title" x="483" y="750">Qualification does not compose au…</text><text class="node-meta" x="443" y="781">LEVEL 3 · 25 PARAGRAPHS</text><title>Open module 14: Qualification does not compose automatically</title></g><g class="module-node" id="node-operational-retrieve-first-loop" data-target="operational-retrieve-first-loop" tabindex="0" role="link"><rect x="780" y="721" width="310" height="82" rx="3" /><text class="node-index" x="798" y="748">15</text><text class="node-title" x="838" y="750">Operational retrieve-first loop</text><text class="node-meta" x="798" y="781">LEVEL 2 · 25 PARAGRAPHS</text><title>Open module 15: Operational retrieve-first loop</title></g><g class="module-node" id="node-non-goals" data-target="non-goals" tabindex="0" role="link"><rect x="70" y="865" width="310" height="82" rx="3" /><text class="node-index" x="88" y="892">16</text><text class="node-title" x="128" y="894">Non-goals</text><text class="node-meta" x="88" y="925">LEVEL 2 · 25 PARAGRAPHS</text><title>Open module 16: Non-goals</title></g><g class="module-node" id="node-further-roadmap" data-target="further-roadmap" tabindex="0" role="link"><rect x="425" y="865" width="310" height="82" rx="3" /><text class="node-index" x="443" y="892">17</text><text class="node-title" x="483" y="894">Further roadmap</text><text class="node-meta" x="443" y="925">LEVEL 2 · 25 PARAGRAPHS</text><title>Open module 17: Further roadmap</title></g><g class="module-node" id="node-saa-9-evidence-grounded-semantic-ontology" data-target="saa-9-evidence-grounded-semantic-ontology" tabindex="0" role="link"><rect x="780" y="865" width="310" height="82" rx="3" /><text class="node-index" x="798" y="892">18</text><text class="node-title" x="838" y="894">SAA-9: Evidence-grounded semantic…</text><text class="node-meta" x="798" y="925">LEVEL 3 · 25 PARAGRAPHS</text><title>Open module 18: SAA-9: Evidence-grounded semantic ontology</title></g><g class="module-node" id="node-saa-9-1-units-dimensions-and-physical-meaning" data-target="saa-9-1-units-dimensions-and-physical-meaning" tabindex="0" role="link"><rect x="70" y="1009" width="310" height="82" rx="3" /><text class="node-index" x="88" y="1036">19</text><text class="node-title" x="128" y="1038">SAA-9.1: Units, dimensions and ph…</text><text class="node-meta" x="88" y="1069">LEVEL 3 · 25 PARAGRAPHS</text><title>Open module 19: SAA-9.1: Units, dimensions and physical meaning</title></g><g class="module-node" id="node-saa-9-2-contradiction-driven-semantic-revision" data-target="saa-9-2-contradiction-driven-semantic-revision" tabindex="0" role="link"><rect x="425" y="1009" width="310" height="82" rx="3" /><text class="node-index" x="443" y="1036">20</text><text class="node-title" x="483" y="1038">SAA-9.2: Contradiction-driven sem…</text><text class="node-meta" x="443" y="1069">LEVEL 3 · 25 PARAGRAPHS</text><title>Open module 20: SAA-9.2: Contradiction-driven semantic revision</title></g><g class="module-node" id="node-saa-9-3-cross-domain-ontology-alignment" data-target="saa-9-3-cross-domain-ontology-alignment" tabindex="0" role="link"><rect x="780" y="1009" width="310" height="82" rx="3" /><text class="node-index" x="798" y="1036">21</text><text class="node-title" x="838" y="1038">SAA-9.3: Cross-domain ontology al…</text><text class="node-meta" x="798" y="1069">LEVEL 3 · 25 PARAGRAPHS</text><title>Open module 21: SAA-9.3: Cross-domain ontology alignment</title></g><g class="module-node" id="node-saa-10-unified-problem-to-algorithm-fit" data-target="saa-10-unified-problem-to-algorithm-fit" tabindex="0" role="link"><rect x="70" y="1153" width="310" height="82" rx="3" /><text class="node-index" x="88" y="1180">22</text><text class="node-title" x="128" y="1182">SAA-10: Unified problem-to-algori…</text><text class="node-meta" x="88" y="1213">LEVEL 3 · 25 PARAGRAPHS</text><title>Open module 22: SAA-10: Unified problem-to-algorithm fit</title></g><g class="module-node" id="node-saa-10-1-retrieve-first-runtime-policy" data-target="saa-10-1-retrieve-first-runtime-policy" tabindex="0" role="link"><rect x="425" y="1153" width="310" height="82" rx="3" /><text class="node-index" x="443" y="1180">23</text><text class="node-title" x="483" y="1182">SAA-10.1: Retrieve-first runtime…</text><text class="node-meta" x="443" y="1213">LEVEL 3 · 25 PARAGRAPHS</text><title>Open module 23: SAA-10.1: Retrieve-first runtime policy</title></g><g class="module-node" id="node-saa-10-2-evidence-bounded-cross-domain-transfer" data-target="saa-10-2-evidence-bounded-cross-domain-transfer" tabindex="0" role="link"><rect x="780" y="1153" width="310" height="82" rx="3" /><text class="node-index" x="798" y="1180">24</text><text class="node-title" x="838" y="1182">SAA-10.2: Evidence-bounded cross-…</text><text class="node-meta" x="798" y="1213">LEVEL 3 · 25 PARAGRAPHS</text><title>Open module 24: SAA-10.2: Evidence-bounded cross-domain transfer</title></g><g class="module-node" id="node-saa-11-controlled-algorithm-adaptation" data-target="saa-11-controlled-algorithm-adaptation" tabindex="0" role="link"><rect x="70" y="1297" width="310" height="82" rx="3" /><text class="node-index" x="88" y="1324">25</text><text class="node-title" x="128" y="1326">SAA-11: Controlled algorithm adap…</text><text class="node-meta" x="88" y="1357">LEVEL 3 · 25 PARAGRAPHS</text><title>Open module 25: SAA-11: Controlled algorithm adaptation</title></g><g class="module-node" id="node-saa-11-1-qualified-evolutionary-lineage" data-target="saa-11-1-qualified-evolutionary-lineage" tabindex="0" role="link"><rect x="425" y="1297" width="310" height="82" rx="3" /><text class="node-index" x="443" y="1324">26</text><text class="node-title" x="483" y="1326">SAA-11.1: Qualified evolutionary…</text><text class="node-meta" x="443" y="1357">LEVEL 3 · 25 PARAGRAPHS</text><title>Open module 26: SAA-11.1: Qualified evolutionary lineage</title></g><g class="module-node" id="node-saa-11-2-bounded-a-b-algorithm-experiments" data-target="saa-11-2-bounded-a-b-algorithm-experiments" tabindex="0" role="link"><rect x="780" y="1297" width="310" height="82" rx="3" /><text class="node-index" x="798" y="1324">27</text><text class="node-title" x="838" y="1326">SAA-11.2: Bounded A/B algorithm e…</text><text class="node-meta" x="798" y="1357">LEVEL 3 · 25 PARAGRAPHS</text><title>Open module 27: SAA-11.2: Bounded A/B algorithm experiments</title></g><g class="module-node" id="node-saa-12-closed-intelligence-improvement-loop" data-target="saa-12-closed-intelligence-improvement-loop" tabindex="0" role="link"><rect x="70" y="1441" width="310" height="82" rx="3" /><text class="node-index" x="88" y="1468">28</text><text class="node-title" x="128" y="1470">SAA-12: Closed intelligence-impro…</text><text class="node-meta" x="88" y="1501">LEVEL 3 · 25 PARAGRAPHS</text><title>Open module 28: SAA-12: Closed intelligence-improvement loop</title></g><g class="module-node" id="node-saa-12-1-canonical-failure-algebra" data-target="saa-12-1-canonical-failure-algebra" tabindex="0" role="link"><rect x="425" y="1441" width="310" height="82" rx="3" /><text class="node-index" x="443" y="1468">29</text><text class="node-title" x="483" y="1470">SAA-12.1: Canonical failure algeb…</text><text class="node-meta" x="443" y="1501">LEVEL 3 · 25 PARAGRAPHS</text><title>Open module 29: SAA-12.1: Canonical failure algebra</title></g><g class="module-node" id="node-saa-12-2-oiec-bench-qualification-gate" data-target="saa-12-2-oiec-bench-qualification-gate" tabindex="0" role="link"><rect x="780" y="1441" width="310" height="82" rx="3" /><text class="node-index" x="798" y="1468">30</text><text class="node-title" x="838" y="1470">SAA-12.2: OIEC-Bench qualificatio…</text><text class="node-meta" x="798" y="1501">LEVEL 3 · 25 PARAGRAPHS</text><title>Open module 30: SAA-12.2: OIEC-Bench qualification gate</title></g><g class="module-node" id="node-saa-12-3-canonical-knowledge-integrity" data-target="saa-12-3-canonical-knowledge-integrity" tabindex="0" role="link"><rect x="70" y="1585" width="310" height="82" rx="3" /><text class="node-index" x="88" y="1612">31</text><text class="node-title" x="128" y="1614">SAA-12.3: Canonical knowledge int…</text><text class="node-meta" x="88" y="1645">LEVEL 3 · 25 PARAGRAPHS</text><title>Open module 31: SAA-12.3: Canonical knowledge integrity</title></g></g>
</svg>
