<svg xmlns="http://www.w3.org/2000/svg" width="1160" height="1037" viewBox="0 0 1160 1037">
<style>
  :root { color-scheme: light; }
  svg { background:#fbf8ff; font-family:'Courier New',monospace; }
  .grid { stroke:#e5d6ff; stroke-width:1; }
  .title { fill:#2b0a5a; font-size:25px; font-weight:700; letter-spacing:2px; }
  .subtitle { fill:#6e3aa8; font-size:13px; letter-spacing:1.4px; }
  .signal-path { fill:none; stroke:#9b4dff; stroke-width:3; stroke-dasharray:8 8; animation:flow 2s linear infinite; }
  .module-node { cursor:pointer; outline:none; }
  .module-node rect { fill:#ffffff; stroke:#5d168f; stroke-width:3; filter:drop-shadow(6px 6px 0 #d7b8ff); transition:120ms ease; }
  .module-node:hover rect,.module-node:focus rect,.module-node.active rect { fill:#f3e8ff; stroke:#ff3fcf; transform:translate(-2px,-2px); }
  .node-index { fill:#ff2dbf; font-size:17px; font-weight:700; }
  .node-title { fill:#2b0a5a; font-size:15px; font-weight:700; }
  .node-meta { fill:#6e3aa8; font-size:11px; letter-spacing:1px; }
  @keyframes flow { to { stroke-dashoffset:-32; } }
</style>
<defs><pattern id="grid" width="24" height="24" patternUnits="userSpaceOnUse"><path class="grid" d="M 24 0 L 0 0 0 24" fill="none" /></pattern></defs>
<rect width="100%" height="100%" fill="url(#grid)" />
<text class="title" x="70" y="58">SAA-4.1 and SAA-5 Representative Input Discovery</text>
<text class="subtitle" x="70" y="88">INTERACTIVE MODULE CIRCUIT · SELECT A NODE TO NAVIGATE</text>
<g class="edges"><path class="signal-path" d="M 380 186.0 C 404 186.0, 401 186.0, 425 186.0" /><path class="signal-path" d="M 735 186.0 C 759 186.0, 756 186.0, 780 186.0" /><path class="signal-path" d="M 1090 186.0 C 1114 186.0, 46 330.0, 70 330.0" /><path class="signal-path" d="M 380 330.0 C 404 330.0, 401 330.0, 425 330.0" /><path class="signal-path" d="M 735 330.0 C 759 330.0, 756 330.0, 780 330.0" /><path class="signal-path" d="M 1090 330.0 C 1114 330.0, 46 474.0, 70 474.0" /><path class="signal-path" d="M 380 474.0 C 404 474.0, 401 474.0, 425 474.0" /><path class="signal-path" d="M 735 474.0 C 759 474.0, 756 474.0, 780 474.0" /><path class="signal-path" d="M 1090 474.0 C 1114 474.0, 46 618.0, 70 618.0" /><path class="signal-path" d="M 380 618.0 C 404 618.0, 401 618.0, 425 618.0" /><path class="signal-path" d="M 735 618.0 C 759 618.0, 756 618.0, 780 618.0" /><path class="signal-path" d="M 1090 618.0 C 1114 618.0, 46 762.0, 70 762.0" /><path class="signal-path" d="M 380 762.0 C 404 762.0, 401 762.0, 425 762.0" /><path class="signal-path" d="M 735 762.0 C 759 762.0, 756 762.0, 780 762.0" /><path class="signal-path" d="M 1090 762.0 C 1114 762.0, 46 906.0, 70 906.0" /></g><g class="nodes"><g class="module-node" id="node-saa-4-1-and-saa-5-representative-input-discovery" data-target="saa-4-1-and-saa-5-representative-input-discovery" tabindex="0" role="link"><rect x="70" y="145" width="310" height="82" rx="3" /><text class="node-index" x="88" y="172">01</text><text class="node-title" x="128" y="174">SAA-4.1 and SAA-5 Representative…</text><text class="node-meta" x="88" y="205">LEVEL 1 · 25 PARAGRAPHS</text><title>Open module 1: SAA-4.1 and SAA-5 Representative Input Discovery</title></g><g class="module-node" id="node-1-source-representation-versus-representative-form" data-target="1-source-representation-versus-representative-form" tabindex="0" role="link"><rect x="425" y="145" width="310" height="82" rx="3" /><text class="node-index" x="443" y="172">02</text><text class="node-title" x="483" y="174">Source representation versus repr…</text><text class="node-meta" x="443" y="205">LEVEL 2 · 25 PARAGRAPHS</text><title>Open module 2: 1. Source representation versus representative form</title></g><g class="module-node" id="node-2-exact-structural-coupling-measure" data-target="2-exact-structural-coupling-measure" tabindex="0" role="link"><rect x="780" y="145" width="310" height="82" rx="3" /><text class="node-index" x="798" y="172">03</text><text class="node-title" x="838" y="174">Exact structural coupling measure</text><text class="node-meta" x="798" y="205">LEVEL 2 · 25 PARAGRAPHS</text><title>Open module 3: 2. Exact structural coupling measure</title></g><g class="module-node" id="node-3-saa-5-1-exact-constant-input-behavioral-rank" data-target="3-saa-5-1-exact-constant-input-behavioral-rank" tabindex="0" role="link"><rect x="70" y="289" width="310" height="82" rx="3" /><text class="node-index" x="88" y="316">04</text><text class="node-title" x="128" y="318">SAA-5.1: exact constant-input beh…</text><text class="node-meta" x="88" y="349">LEVEL 2 · 25 PARAGRAPHS</text><title>Open module 4: 3. SAA-5.1: exact constant-input behavioral rank</title></g><g class="module-node" id="node-scope-of-minimality" data-target="scope-of-minimality" tabindex="0" role="link"><rect x="425" y="289" width="310" height="82" rx="3" /><text class="node-index" x="443" y="316">05</text><text class="node-title" x="483" y="318">Scope of minimality</text><text class="node-meta" x="443" y="349">LEVEL 3 · 25 PARAGRAPHS</text><title>Open module 5: Scope of minimality</title></g><g class="module-node" id="node-4-saa-5-representative-basis-search" data-target="4-saa-5-representative-basis-search" tabindex="0" role="link"><rect x="780" y="289" width="310" height="82" rx="3" /><text class="node-index" x="798" y="316">06</text><text class="node-title" x="838" y="318">SAA-5: representative basis search</text><text class="node-meta" x="798" y="349">LEVEL 2 · 25 PARAGRAPHS</text><title>Open module 6: 4. SAA-5: representative basis search</title></g><g class="module-node" id="node-search-order" data-target="search-order" tabindex="0" role="link"><rect x="70" y="433" width="310" height="82" rx="3" /><text class="node-index" x="88" y="460">07</text><text class="node-title" x="128" y="462">Search order</text><text class="node-meta" x="88" y="493">LEVEL 3 · 25 PARAGRAPHS</text><title>Open module 7: Search order</title></g><g class="module-node" id="node-5-representative-form-acceptance" data-target="5-representative-form-acceptance" tabindex="0" role="link"><rect x="425" y="433" width="310" height="82" rx="3" /><text class="node-index" x="443" y="460">08</text><text class="node-title" x="483" y="462">Representative-form acceptance</text><text class="node-meta" x="443" y="493">LEVEL 2 · 25 PARAGRAPHS</text><title>Open module 8: 5. Representative-form acceptance</title></g><g class="module-node" id="node-6-saa-5-2-invertibility-and-admissibility" data-target="6-saa-5-2-invertibility-and-admissibility" tabindex="0" role="link"><rect x="780" y="433" width="310" height="82" rx="3" /><text class="node-index" x="798" y="460">09</text><text class="node-title" x="838" y="462">SAA-5.2: invertibility and admiss…</text><text class="node-meta" x="798" y="493">LEVEL 2 · 25 PARAGRAPHS</text><title>Open module 9: 6. SAA-5.2: invertibility and admissibility</title></g><g class="module-node" id="node-full-invertibility" data-target="full-invertibility" tabindex="0" role="link"><rect x="70" y="577" width="310" height="82" rx="3" /><text class="node-index" x="88" y="604">10</text><text class="node-title" x="128" y="606">Full invertibility</text><text class="node-meta" x="88" y="637">LEVEL 3 · 25 PARAGRAPHS</text><title>Open module 10: Full invertibility</title></g><g class="module-node" id="node-behavioral-quotient-invertibility" data-target="behavioral-quotient-invertibility" tabindex="0" role="link"><rect x="425" y="577" width="310" height="82" rx="3" /><text class="node-index" x="443" y="604">11</text><text class="node-title" x="483" y="606">Behavioral quotient invertibility</text><text class="node-meta" x="443" y="637">LEVEL 3 · 25 PARAGRAPHS</text><title>Open module 11: Behavioral quotient invertibility</title></g><g class="module-node" id="node-7-constant-transform-admissibility" data-target="7-constant-transform-admissibility" tabindex="0" role="link"><rect x="780" y="577" width="310" height="82" rx="3" /><text class="node-index" x="798" y="604">12</text><text class="node-title" x="838" y="606">Constant-transform admissibility</text><text class="node-meta" x="798" y="637">LEVEL 2 · 25 PARAGRAPHS</text><title>Open module 12: 7. Constant-transform admissibility</title></g><g class="module-node" id="node-8-re-normalization-boundary" data-target="8-re-normalization-boundary" tabindex="0" role="link"><rect x="70" y="721" width="310" height="82" rx="3" /><text class="node-index" x="88" y="748">13</text><text class="node-title" x="128" y="750">Re-normalization boundary</text><text class="node-meta" x="88" y="781">LEVEL 2 · 25 PARAGRAPHS</text><title>Open module 13: 8. Re-normalization boundary</title></g><g class="module-node" id="node-9-approximate-dynamics" data-target="9-approximate-dynamics" tabindex="0" role="link"><rect x="425" y="721" width="310" height="82" rx="3" /><text class="node-index" x="443" y="748">14</text><text class="node-title" x="483" y="750">Approximate dynamics</text><text class="node-meta" x="443" y="781">LEVEL 2 · 25 PARAGRAPHS</text><title>Open module 14: 9. Approximate dynamics</title></g><g class="module-node" id="node-10-algorithm-store-consequence" data-target="10-algorithm-store-consequence" tabindex="0" role="link"><rect x="780" y="721" width="310" height="82" rx="3" /><text class="node-index" x="798" y="748">15</text><text class="node-title" x="838" y="750">Algorithm Store consequence</text><text class="node-meta" x="798" y="781">LEVEL 2 · 25 PARAGRAPHS</text><title>Open module 15: 10. Algorithm Store consequence</title></g><g class="module-node" id="node-11-non-claims" data-target="11-non-claims" tabindex="0" role="link"><rect x="70" y="865" width="310" height="82" rx="3" /><text class="node-index" x="88" y="892">16</text><text class="node-title" x="128" y="894">Non-claims</text><text class="node-meta" x="88" y="925">LEVEL 2 · 25 PARAGRAPHS</text><title>Open module 16: 11. Non-claims</title></g></g>
</svg>
