<svg xmlns="http://www.w3.org/2000/svg" width="96" height="96" viewBox="0 0 96 96" role="img" data-object-id="rel-heading-saa78to82nonlinearreasoning-md-saa-9-1-phy-b027870d4de1" data-object-kind="heading">
<title>SAA-9.1: physical units and dimensional semantics</title><desc>Level 2 learning object derived from heading 29 in SAA_7_8_TO_8_2_NONLINEAR_REASONING.md. Relation: decomposes-into.</desc><metadata>{"description": "Level 2 learning object derived from heading 29 in SAA_7_8_TO_8_2_NONLINEAR_REASONING.md.", "href": "SAA_7_8_TO_8_2_NONLINEAR_REASONING.html#saa-9-1-physical-units-and-dimensional-semantics", "kind": "heading", "object_id": "rel-heading-saa78to82nonlinearreasoning-md-saa-9-1-phy-b027870d4de1", "parent_id": "rel-document-saa78to82nonlinearreasoning-md-ff0463e75703", "related_ids": [], "relation": "decomposes-into", "source_key": "SAA_7_8_TO_8_2_NONLINEAR_REASONING.md#saa-9-1-physical-units-and-dimensional-semantics", "symbol": "figures/relational-objects/rel-heading-saa78to82nonlinearreasoning-md-saa-9-1-phy-b027870d4de1.svg", "title": "SAA-9.1: physical units and dimensional semantics"}</metadata>
<style>svg{background:#fbf8ff}[data-symbol-core]{transform-origin:48px 48px;transition:transform 160ms ease,filter 160ms ease}svg[data-active="true"] [data-symbol-core]{transform:scale(1.05);filter:drop-shadow(0 0 6px #ffffff)}@media(prefers-reduced-motion:reduce){[data-symbol-core]{transition:none}}</style>
<g id="object-symbol" data-symbol-core="true"><path d="M48 9 86 48 48 87 10 48Z" fill="#9a3bd6" stroke="#ffffff" stroke-width="4" /><path d="M29 38H67M29 49H67M38 60H58" stroke="#ffffff" stroke-width="4" /><rect x="4" y="4" width="25" height="16" fill="#ffffff" stroke="#9a3bd6" stroke-width="2" /><text x="16.5" y="16" fill="#9a3bd6" font-family="Courier New,monospace" font-size="9" font-weight="700" text-anchor="middle">HD</text><rect x="70" y="72" width="4" height="4" fill="#ffffff" /><rect x="75" y="72" width="4" height="4" fill="#d9c1ef" /><rect x="80" y="72" width="4" height="4" fill="#ffffff" /><rect x="85" y="72" width="4" height="4" fill="#ffffff" /><rect x="70" y="77" width="4" height="4" fill="#ffffff" /><rect x="75" y="77" width="4" height="4" fill="#d9c1ef" /><rect x="80" y="77" width="4" height="4" fill="#ffffff" /><rect x="85" y="77" width="4" height="4" fill="#ffffff" /><rect x="70" y="82" width="4" height="4" fill="#ffffff" /><rect x="75" y="82" width="4" height="4" fill="#d9c1ef" /><rect x="80" y="82" width="4" height="4" fill="#d9c1ef" /><rect x="85" y="82" width="4" height="4" fill="#d9c1ef" /><rect x="70" y="87" width="4" height="4" fill="#ffffff" /><rect x="75" y="87" width="4" height="4" fill="#ffffff" /><rect x="80" y="87" width="4" height="4" fill="#ffffff" /><rect x="85" y="87" width="4" height="4" fill="#ffffff" /></g>
</svg>
