<svg data-visual-grammar="1" data-visual-role="relational-object" data-doc-node="rel-folder-adr-36320e8ed08c" data-node-role="object" aria-label="adr/" tabindex="0" xmlns="http://www.w3.org/2000/svg" width="96" height="96" viewBox="0 0 96 96" role="img" data-object-id="rel-folder-adr-36320e8ed08c" data-object-kind="folder">
<title>adr/</title><desc>Source folder indexing 4 generated documents. Relation: indexes-source.</desc><metadata>{"description": "Source folder indexing 4 generated documents.", "href": "#source-folders", "kind": "folder", "object_id": "rel-folder-adr-36320e8ed08c", "parent_id": "rel-root-docs-index-html-d86163bf2ae1", "related_ids": ["rel-document-adr-0001-egcf-semantic-layer-md-4d971316ac45", "rel-document-adr-0002-egcf-canonical-storage-md-d26fdd2fa753", "rel-document-adr-0003-egcf-capability-authority-md-8c5f4a4079a8", "rel-document-adr-0004-egcf-eon-boundary-md-ac8184ccbf8b"], "relation": "indexes-source", "source_key": "adr", "symbol": "figures/relational-objects/rel-folder-adr-36320e8ed08c.svg", "title": "adr/"}</metadata>
<style>svg{background:#fbf8ff}[data-symbol-core]{transform-origin:48px 48px;transition:transform 160ms ease,filter 160ms ease}svg[data-active="true"] [data-symbol-core]{transform:scale(1.05);filter:drop-shadow(0 0 6px #fff36a)}@media(prefers-reduced-motion:reduce){[data-symbol-core]{transition:none}}</style>
<g id="object-symbol" data-symbol-core="true"><path d="M12 28H39L47 20H84V76H12Z" fill="#6a1aa5" stroke="#fff36a" stroke-width="4" /><path d="M20 42H76V68H20Z" fill="#ffffff" stroke="#fff36a" stroke-width="3" /><rect x="4" y="4" width="25" height="16" fill="#ffffff" stroke="#6a1aa5" stroke-width="2" /><text x="16.5" y="16" fill="#6a1aa5" font-family="Courier New,monospace" font-size="9" font-weight="700" text-anchor="middle">FD</text><rect x="70" y="72" width="4" height="4" fill="#d9c1ef" /><rect x="75" y="72" width="4" height="4" fill="#fff36a" /><rect x="80" y="72" width="4" height="4" fill="#d9c1ef" /><rect x="85" y="72" width="4" height="4" fill="#d9c1ef" /><rect x="70" y="77" width="4" height="4" fill="#fff36a" /><rect x="75" y="77" width="4" height="4" fill="#fff36a" /><rect x="80" y="77" width="4" height="4" fill="#fff36a" /><rect x="85" y="77" width="4" height="4" fill="#d9c1ef" /><rect x="70" y="82" width="4" height="4" fill="#d9c1ef" /><rect x="75" y="82" width="4" height="4" fill="#fff36a" /><rect x="80" y="82" width="4" height="4" fill="#fff36a" /><rect x="85" y="82" width="4" height="4" fill="#d9c1ef" /><rect x="70" y="87" width="4" height="4" fill="#fff36a" /><rect x="75" y="87" width="4" height="4" fill="#d9c1ef" /><rect x="80" y="87" width="4" height="4" fill="#fff36a" /><rect x="85" y="87" width="4" height="4" fill="#d9c1ef" /></g>
</svg>
